<svg width="197" height="43" viewBox="0 0 197 43" fill="none" xmlns="http://www.w3.org/2000/svg">
<path fill-rule="evenodd" clip-rule="evenodd" d="M25.2482 11.4022C25.4326 11.3538 25.5168 11.4237 25.6261 11.5527C26.2529 12.298 28.273 14.8959 28.8228 15.6072C28.8429 15.6324 28.8576 15.6614 28.866 15.6925C28.8745 15.7235 28.8765 15.756 28.872 15.7878C28.8675 15.8197 28.8565 15.8503 28.8397 15.8778C28.8229 15.9053 28.8007 15.929 28.7745 15.9476C24.7019 19.3034 20.1709 24.0495 17.6458 27.4501C17.592 27.5218 17.6368 27.5272 17.6726 27.511C22.0711 25.5115 32.4011 22.3206 37.061 21.4265V15.2023L18.8475 0L0.596313 15.2023V22.0052C6.2538 18.456 19.3256 12.9609 25.2482 11.4022ZM109.922 2.11596H117.937V42.1275H109.922V2.11596ZM103.985 2.11596H95.9712V42.1292H103.985V2.11596ZM157.199 15.9476H149.281L157.299 42.1328H164.672L166.685 35.5126C167.484 32.8825 168.816 27.9715 168.816 27.9715C168.82 27.9582 168.827 27.9464 168.838 27.938C168.849 27.9295 168.862 27.9249 168.876 27.9249C168.902 27.9249 168.926 27.9428 168.935 27.9715C168.935 27.9715 170.269 32.9774 171.026 35.5574L173.002 42.1275H180.244L188.205 15.9458H180.846L178.55 23.8668C177.849 26.3775 177.168 28.8937 176.507 31.4151C176.503 31.4283 176.496 31.4402 176.485 31.4486C176.474 31.457 176.461 31.4616 176.447 31.4617C176.434 31.4616 176.421 31.457 176.41 31.4486C176.399 31.4402 176.392 31.4283 176.388 31.4151C176.388 31.4151 175.153 26.5812 174.352 23.8668L171.988 15.9476H166.139L163.732 23.8668C162.978 26.4002 161.655 31.4187 161.655 31.4187C161.65 31.4309 161.642 31.4415 161.632 31.449C161.621 31.4564 161.608 31.4602 161.595 31.4599C161.583 31.4598 161.57 31.4558 161.56 31.4484C161.55 31.441 161.542 31.4306 161.538 31.4187C161.538 31.4187 160.259 26.4916 159.493 23.8668L157.199 15.9476ZM121.904 29.1271C121.904 21.1721 127.98 15.2793 135.414 15.2793C142.775 15.2793 148.853 21.1739 148.853 29.1271C148.853 37.1054 142.778 43 135.414 43C127.982 43 121.904 37.1054 121.904 29.1325V29.1271ZM141.163 29.1271C141.163 25.232 138.53 22.5804 135.414 22.5804C132.225 22.5804 129.594 25.232 129.594 29.1271C129.594 33.0491 132.225 35.6739 135.414 35.6739C138.53 35.6739 141.163 33.0491 141.163 29.1271ZM49.6117 5.81754V13.5325H63.776C63.8333 13.5325 63.8548 13.5898 63.8261 13.64L49.6063 39.1569L49.5813 39.2035C49.2589 39.827 49.1819 39.9775 49.1819 40.6242V42.1292H76.7726V34.4287H61.446C61.4339 34.4286 61.422 34.4251 61.4118 34.4184C61.4016 34.4117 61.3936 34.4022 61.3887 34.391C61.3833 34.3796 61.3811 34.3668 61.3824 34.3542C61.3836 34.3416 61.3883 34.3295 61.3959 34.3194L75.7805 8.46742L75.8199 8.385C75.9202 8.17 76.0169 7.96933 76.0169 7.43183L76.0205 5.81933L49.6117 5.81754ZM85.883 2.83262C88.3813 2.83262 90.4462 4.96112 90.4462 7.58233C90.4462 10.2053 88.3813 12.3374 85.883 12.3374C83.3847 12.3374 81.3215 10.2089 81.3215 7.58592C81.3215 4.96292 83.3847 2.83442 85.883 2.83442V2.83262ZM81.8767 15.9476H89.8893V42.1292H81.8767V15.9476ZM10.0362 37.4853C10.1347 37.6071 10.3048 37.6322 10.4302 37.5462C17.1962 33.8661 32.0805 29.1952 37.061 28.3012V42.2869H0.598104V27.7565C4.34648 25.5169 14.4723 20.9231 18.0362 19.694C18.1078 19.6689 18.1239 19.7119 18.063 19.7603C14.6424 22.4424 9.28043 28.7724 6.65317 32.8412C6.53318 33.0312 6.54034 33.0921 6.63526 33.2085L10.0362 37.4853ZM192.36 10.9363C193.053 10.9363 193.547 11.4631 193.547 12.2156C193.547 12.7853 193.255 13.235 192.811 13.4124L193.493 14.5949H192.845L192.211 13.4948H191.652V14.5913H191.083V10.9363H192.36ZM191.652 12.9573H192.324C192.702 12.9573 192.979 12.6492 192.979 12.221C192.979 11.791 192.702 11.4774 192.326 11.4774H191.652V12.9573ZM192.188 9.66783C190.977 9.66783 189.886 10.4383 189.424 11.6172C189.197 12.1936 189.137 12.8227 189.252 13.4317C189.366 14.0408 189.651 14.6049 190.073 15.059C190.478 15.4972 191.009 15.7985 191.593 15.9212C192.177 16.0438 192.785 15.9817 193.332 15.7434C194.45 15.2542 195.179 14.1022 195.179 12.8247C195.177 11.0815 193.839 9.66962 192.188 9.66783ZM192.188 15.3761C191.21 15.3761 190.329 14.7544 189.954 13.8012C189.771 13.3355 189.722 12.8274 189.815 12.3354C189.907 11.8434 190.137 11.3876 190.477 11.0205C191.169 10.2895 192.209 10.071 193.112 10.4669C194.014 10.8611 194.604 11.7927 194.604 12.8247C194.602 14.233 193.522 15.3743 192.188 15.3761Z" fill="#006AFF"/>
</svg>
