<svg width="105" height="28" viewBox="0 0 105 28" fill="none" xmlns="http://www.w3.org/2000/svg">
<path d="M0.62 27V25.164L18.116 3.096L18.404 4.104H0.872V1.8H20.852V3.636L3.392 25.704L3.068 24.696H21.284V27H0.62ZM26.0132 27V8.1H28.5692V27H26.0132ZM27.3092 3.924C26.7812 3.924 26.3372 3.744 25.9772 3.384C25.6172 3.024 25.4372 2.592 25.4372 2.088C25.4372 1.584 25.6172 1.164 25.9772 0.827998C26.3372 0.467998 26.7812 0.287998 27.3092 0.287998C27.8372 0.287998 28.2812 0.455998 28.6412 0.791998C29.0012 1.128 29.1812 1.548 29.1812 2.052C29.1812 2.58 29.0012 3.024 28.6412 3.384C28.3052 3.744 27.8612 3.924 27.3092 3.924ZM35.6812 27V0.287998H38.2372V27H35.6812ZM45.3492 27V0.287998H47.9052V27H45.3492ZM62.7211 27.18C60.8971 27.18 59.2531 26.772 57.7891 25.956C56.3491 25.116 55.2091 23.976 54.3691 22.536C53.5291 21.072 53.1091 19.404 53.1091 17.532C53.1091 15.636 53.5291 13.968 54.3691 12.528C55.2091 11.088 56.3491 9.96 57.7891 9.144C59.2291 8.328 60.8731 7.92 62.7211 7.92C64.5931 7.92 66.2491 8.328 67.6891 9.144C69.1531 9.96 70.2931 11.088 71.1091 12.528C71.9491 13.968 72.3691 15.636 72.3691 17.532C72.3691 19.404 71.9491 21.072 71.1091 22.536C70.2931 23.976 69.1531 25.116 67.6891 25.956C66.2251 26.772 64.5691 27.18 62.7211 27.18ZM62.7211 24.912C64.0891 24.912 65.3011 24.612 66.3571 24.012C67.4131 23.388 68.2411 22.524 68.8411 21.42C69.4651 20.292 69.7771 18.996 69.7771 17.532C69.7771 16.044 69.4651 14.748 68.8411 13.644C68.2411 12.54 67.4131 11.688 66.3571 11.088C65.3011 10.464 64.1011 10.152 62.7571 10.152C61.4131 10.152 60.2131 10.464 59.1571 11.088C58.1011 11.688 57.2611 12.54 56.6371 13.644C56.0131 14.748 55.7011 16.044 55.7011 17.532C55.7011 18.996 56.0131 20.292 56.6371 21.42C57.2611 22.524 58.1011 23.388 59.1571 24.012C60.2131 24.612 61.4011 24.912 62.7211 24.912ZM80.9121 27L73.7841 8.1H76.2321L82.7121 25.632H81.5961L88.2561 8.1H90.4521L97.0401 25.632H95.9241L102.512 8.1H104.852L97.6881 27H95.2761L88.9401 10.512H89.6961L83.3241 27H80.9121Z" fill="white"/>
</svg>
