<svg width="54" height="32" viewBox="0 0 54 32" fill="none" xmlns="http://www.w3.org/2000/svg">
<g opacity="0.8">
<path d="M52.64 2.17C53.01 0.92 52.64 0 50.86 0H44.97C43.47 0 42.78 0.79 42.41 1.67C42.41 1.67 39.41 8.98 35.17 13.72C33.8 15.09 33.17 15.53 32.42 15.53C32.05 15.53 31.48 15.09 31.48 13.84V2.17C31.48 0.67 31.06 0 29.82 0H20.56C19.62 0 19.06 0.7 19.06 1.35C19.06 2.77 21.18 3.1 21.4 7.1V15.78C21.4 17.68 21.06 18.03 20.31 18.03C18.31 18.03 13.45 10.69 10.57 2.29C9.99 0.66 9.42 0 7.91 0H2.02C0.34 0 0 0.79 0 1.67C0 3.23 2 10.98 9.31 21.22C14.18 28.21 21.04 32 27.28 32C31.03 32 31.49 31.16 31.49 29.71C31.49 23.03 31.15 22.4 33.03 22.4C33.9 22.4 35.4 22.84 38.9 26.21C42.9 30.21 43.56 32 45.8 32H51.69C53.37 32 54.22 31.16 53.73 29.5C52.61 26.01 45.04 18.83 44.7 18.35C43.83 17.23 44.08 16.73 44.7 15.73C44.71 15.72 51.9 5.6 52.64 2.17Z" fill="white"/>
</g>
</svg>
